<svg width="203" height="166" viewBox="0 0 203 166" fill="none" xmlns="http://www.w3.org/2000/svg">
<path d="M200.827 158.878C200.827 161.913 198.366 164.373 195.333 164.373H20.3753C17.3424 164.373 14.8809 161.913 14.8809 158.878V29.0492C14.8809 26.0144 17.3424 23.5547 20.3753 23.5547H166.858L200.827 57.5381V158.878Z" fill="#F2FCFF" stroke="#2647A3" stroke-width="2.74724" stroke-linecap="round" stroke-linejoin="round"/>
<path d="M35.2803 64.8633H108.54" stroke="#2647A3" stroke-width="2.74724" stroke-linecap="round" stroke-linejoin="round"/>
<path d="M35.2803 77.6836H180.426" stroke="#2647A3" stroke-width="2.74724" stroke-linecap="round" stroke-linejoin="round"/>
<path d="M35.2803 90.5039H180.426" stroke="#2647A3" stroke-width="2.74724" stroke-linecap="round" stroke-linejoin="round"/>
<path d="M35.2803 103.324H180.426" stroke="#2647A3" stroke-width="2.74724" stroke-linecap="round" stroke-linejoin="round"/>
<path d="M35.2803 116.146H180.426" stroke="#2647A3" stroke-width="2.74724" stroke-linecap="round" stroke-linejoin="round"/>
<path d="M35.2803 128.967H180.426" stroke="#2647A3" stroke-width="2.74724" stroke-linecap="round" stroke-linejoin="round"/>
<path d="M35.2803 141.787H180.426" stroke="#2647A3" stroke-width="2.74724" stroke-linecap="round" stroke-linejoin="round"/>
<path d="M166.859 23.5547H166.846V50.1352C166.846 54.2231 170.159 57.5362 174.247 57.5362H200.825L166.859 23.5547Z" fill="#BADBF7" stroke="#2647A3" stroke-width="2.74724" stroke-linecap="round" stroke-linejoin="round"/>
<path d="M187.32 136.697C187.32 139.731 184.859 142.191 181.826 142.191H6.86851C3.83555 142.191 1.37402 139.731 1.37402 136.697V6.86753C1.37402 3.83274 3.83555 1.37305 6.86851 1.37305H153.351L187.32 35.3564V136.697Z" fill="white" stroke="#2647A3" stroke-width="2.74724" stroke-linecap="round" stroke-linejoin="round"/>
<path d="M21.7725 42.6816H95.0323" stroke="#2647A3" stroke-width="2.74724" stroke-linecap="round" stroke-linejoin="round"/>
<path d="M21.7725 55.502H166.918" stroke="#2647A3" stroke-width="2.74724" stroke-linecap="round" stroke-linejoin="round"/>
<path d="M21.7725 68.3223H166.918" stroke="#2647A3" stroke-width="2.74724" stroke-linecap="round" stroke-linejoin="round"/>
<path d="M21.7725 81.1426H166.918" stroke="#2647A3" stroke-width="2.74724" stroke-linecap="round" stroke-linejoin="round"/>
<path d="M21.7725 93.9629H166.918" stroke="#2647A3" stroke-width="2.74724" stroke-linecap="round" stroke-linejoin="round"/>
<path d="M21.7725 106.783H166.918" stroke="#2647A3" stroke-width="2.74724" stroke-linecap="round" stroke-linejoin="round"/>
<path d="M21.7725 119.605H166.918" stroke="#2647A3" stroke-width="2.74724" stroke-linecap="round" stroke-linejoin="round"/>
<path d="M153.351 1.37305H153.338V27.9535C153.338 32.0414 156.651 35.3546 160.739 35.3546H187.318L153.351 1.37305Z" fill="#BADBF7" stroke="#2647A3" stroke-width="2.74724" stroke-linecap="round" stroke-linejoin="round"/>
</svg>
